<svg width="31" height="32" viewBox="0 0 31 32" fill="none" xmlns="http://www.w3.org/2000/svg">
<path d="M15.3331 19.8182C20.0777 19.8182 23.924 16.1143 23.924 11.5454C23.924 6.97653 20.0777 3.27271 15.3331 3.27271C10.5885 3.27271 6.74219 6.97653 6.74219 11.5454C6.74219 16.1143 10.5885 19.8182 15.3331 19.8182Z" fill="#1C2A3A"/>
<path d="M20.1569 20.5946C20.5769 20.3782 21.0605 20.6964 21.0605 21.1673V27.3401C21.0605 28.4855 20.2587 29.0455 19.266 28.5746L15.855 26.9582C15.5623 26.831 15.1041 26.831 14.8114 26.9582L11.4005 28.5746C10.4078 29.0328 9.60596 28.4728 9.60596 27.3273L9.63141 21.1673C9.63141 20.6964 10.1278 20.391 10.535 20.5946C11.9732 21.3201 13.6023 21.7273 15.3332 21.7273C17.0641 21.7273 18.706 21.3201 20.1569 20.5946Z" fill="#1C2A3A"/>
</svg>
